<svg width="207" height="207" viewBox="0 0 207 207" fill="none" xmlns="http://www.w3.org/2000/svg">
<path d="M167.113 206.535C146.043 206.535 128.113 190.615 128.403 169.635C128.673 146.885 120.643 128.525 104.623 113.065C99.2297 107.865 93.8563 102.652 88.503 97.4253C74.753 84.0653 58.283 78.2353 39.143 78.4253C21.073 78.6153 6.633 67.5653 1.703 50.9953C-0.67858 42.9546 -0.452853 34.3663 2.34784 26.4619C5.14853 18.5574 10.3804 11.7428 17.293 6.9953C24.2597 2.16137 32.6057 -0.283864 41.0795 0.0262418C49.5533 0.336347 57.6983 3.38509 64.293 8.7153C73.463 15.9653 78.903 25.7153 78.393 37.2053C77.323 61.3053 87.543 79.9153 104.393 95.8553C108.013 99.2953 111.58 102.789 115.093 106.335C129.763 121.155 147.183 128.495 168.363 128.225C190.243 127.945 206.763 145.485 206.643 167.175C206.611 177.634 202.431 187.653 195.02 195.032C187.608 202.411 177.572 206.549 167.113 206.535V206.535Z" fill="#FD4974"/>
<path d="M206.563 42.0953C206.373 52.8453 200.893 63.5153 190.223 70.7053C179.943 77.6253 173.433 86.5653 170.733 98.5053C170.243 100.655 169.583 103.085 166.893 102.995C164.583 102.915 163.893 100.755 163.393 98.7053C160.753 86.5553 153.963 77.7053 143.683 70.4953C127.903 59.4953 123.293 40.0753 131.213 23.0653C134.995 14.8243 141.5 8.13774 149.634 4.13085C157.768 0.123964 167.034 -0.958623 175.873 1.06527C193.863 5.13527 206.643 21.2453 206.563 42.0953Z" fill="#FD4974"/>
<path d="M38.9832 206.535C30.6874 206.394 22.6457 203.65 15.9927 198.693C9.33967 193.735 4.41132 186.814 1.90314 178.905C-3.18686 163.025 2.04313 145.845 16.2731 136.065C26.6231 128.955 33.3231 119.995 36.0231 107.875C36.4731 105.875 37.1532 103.665 39.5532 103.635C42.2432 103.635 42.8531 105.975 43.3431 108.145C46.0131 119.865 52.3432 128.725 62.4232 135.645C69.4383 140.282 74.6998 147.133 77.3693 155.107C80.0388 163.081 79.9627 171.719 77.1531 179.645C74.4355 187.577 69.2815 194.448 62.4269 199.277C55.5722 204.106 47.3672 206.647 38.9832 206.535V206.535Z" fill="#FD4974"/>
</svg>
